<?xml version="1.0" standalone="no"?>
<!DOCTYPE svg PUBLIC "-//W3C//DTD SVG 20010904//EN"
 "http://www.w3.org/TR/2001/REC-SVG-20010904/DTD/svg10.dtd">
<svg version="1.0" xmlns="http://www.w3.org/2000/svg"
 width="260.000000pt" height="260.000000pt" viewBox="0 0 260.000000 260.000000"
 preserveAspectRatio="xMidYMid meet">
<metadata>
Created by potrace 1.14, written by Peter Selinger 2001-2017
</metadata>
<g transform="translate(0.000000,260.000000) scale(0.100000,-0.100000)"
fill="#000000" stroke="none">
<path d="M910 2080 c0 -27 -3 -30 -30 -30 -17 0 -31 -6 -31 -12 -1 -7 -2 -20
-3 -28 -1 -11 -16 -16 -58 -18 -64 -3 -61 1 -60 -89 0 -30 -2 -33 -29 -33 -26
0 -29 -4 -29 -30 0 -21 -5 -30 -17 -31 -10 -1 -25 -2 -33 -3 -12 -1 -15 -23
-15 -121 -1 -98 -3 -120 -15 -121 -8 -1 -22 -2 -31 -3 -10 -1 -15 -11 -15 -28
1 -22 -4 -28 -21 -29 -13 -1 -27 -2 -31 -3 -5 0 -8 -28 -7 -61 1 -37 -3 -60
-9 -59 -53 6 -51 13 -51 -178 l0 -178 30 -5 c24 -4 30 -10 31 -30 1 -14 2 -27
3 -30 0 -3 13 -6 29 -5 23 0 27 -4 28 -30 l1 -30 -61 5 c-57 5 -61 7 -61 30 0
20 -6 26 -30 30 -25 4 -31 10 -30 30 0 20 -6 26 -30 30 -24 4 -30 10 -30 30 0
20 -6 26 -30 30 -17 3 -31 12 -31 20 -1 8 -2 21 -3 28 0 7 -14 12 -31 12 l-31
0 4 55 c2 33 0 59 -7 64 -6 5 -35 9 -64 8 -52 -2 -52 -2 -52 -34 0 -30 -3 -33
-30 -33 l-30 0 0 -60 0 -60 60 0 c60 0 60 0 60 -29 0 -26 4 -30 33 -33 28 -3
32 -7 31 -30 -1 -27 8 -33 44 -29 12 2 16 -10 13 -41 -2 -12 7 -18 31 -20 29
-3 33 -6 32 -30 -1 -26 13 -35 49 -29 9 1 9 -4 11 -104 1 -62 4 -79 15 -77 24
5 48 -8 48 -26 0 -39 3 -42 31 -37 26 4 28 2 27 -28 -1 -26 -5 -32 -23 -33
-41 -3 -43 -4 -38 -21 8 -26 -9 -47 -32 -41 -22 6 -32 -8 -32 -43 0 -13 -6
-20 -17 -18 -38 3 -44 -1 -41 -28 2 -22 -1 -28 -17 -29 -11 -1 -26 -2 -33 -3
-9 -1 -12 -14 -11 -38 4 -77 1 -83 -30 -83 l-29 0 -1 -115 0 -115 1089 0 1089
0 0 115 -1 115 -29 0 c-29 0 -29 1 -29 60 0 61 -3 65 -42 61 -12 -2 -18 5 -19
18 -1 12 -2 27 -3 34 -1 6 -13 12 -29 11 -23 -1 -27 3 -27 27 0 28 -10 35 -47
30 -7 -1 -14 6 -14 16 -1 10 -2 25 -3 33 0 8 -11 15 -23 15 -27 0 -37 10 -39
39 -1 22 2 23 58 21 37 -2 59 2 60 9 0 6 2 16 3 21 2 6 3 15 4 21 0 6 13 11
29 10 l27 -1 0 90 c1 71 4 90 15 91 8 1 23 2 33 3 9 0 16 4 16 9 -6 38 2 52
31 52 27 0 30 3 30 30 0 17 3 29 8 29 38 -6 52 2 52 31 0 27 3 30 30 30 27 0
30 3 30 30 l0 30 60 0 60 0 0 60 c0 60 0 60 -29 60 -26 0 -30 4 -33 33 -3 31
-4 32 -55 34 -29 1 -55 -3 -58 -8 -4 -5 -6 -34 -6 -64 0 -54 -1 -55 -29 -55
-24 0 -29 -5 -32 -27 -2 -22 -9 -29 -30 -31 -21 -3 -27 -9 -30 -30 -2 -21 -9
-28 -30 -30 -27 -3 -33 -13 -29 -53 1 -11 -6 -14 -32 -11 -33 4 -34 3 -29 -27
4 -28 2 -31 -24 -32 -169 -3 -159 -1 -159 -34 0 -26 -4 -29 -30 -30 l-30 0 0
-88 1 -87 -63 0 c-55 0 -61 2 -58 18 4 24 -5 37 -27 39 -33 1 -35 3 -35 21 0
39 -3 43 -30 40 -25 -3 -28 0 -29 30 0 24 4 32 15 31 40 -4 48 1 47 29 -1 23
4 28 29 32 25 4 30 10 30 30 0 20 6 26 30 30 24 4 30 10 30 30 0 20 6 26 30
30 l30 5 0 390 0 390 -28 -1 c-15 -1 -28 4 -28 10 -1 6 -2 16 -4 21 -1 6 -3
16 -3 23 -1 6 -15 12 -32 12 -29 0 -29 0 -27 58 l2 57 -62 3 c-61 3 -62 4 -60
30 2 29 2 29 -80 31 -41 1 -43 3 -43 31 l0 30 -330 0 -330 0 0 -30z m-63
-1270 c-1 -90 -3 -94 -39 -91 -14 2 -18 -5 -18 -27 0 -36 -10 -40 -75 -33
l-50 6 0 62 c0 34 3 59 7 57 4 -3 32 -6 60 -7 l53 -1 3 62 c3 61 3 62 32 62
l28 0 -1 -90z"/>
</g>
</svg>
